<?xml version="1.0" standalone="no"?>
<!DOCTYPE svg PUBLIC "-//W3C//DTD SVG 20010904//EN"
 "http://www.w3.org/TR/2001/REC-SVG-20010904/DTD/svg10.dtd">
<svg version="1.0" xmlns="http://www.w3.org/2000/svg"
 width="500.000000pt" height="173.000000pt" viewBox="0 0 500.000000 173.000000"
 preserveAspectRatio="xMidYMid meet">

<g transform="translate(0.000000,173.000000) scale(0.100000,-0.100000)"
fill="#000000" stroke="none">
<path d="M0 865 l0 -865 2500 0 2500 0 0 865 0 865 -2500 0 -2500 0 0 -865z
m2910 696 l0 -99 -112 5 c-95 5 -127 2 -197 -15 -46 -12 -89 -26 -96 -32 -16
-13 -42 -108 -51 -182 l-7 -58 -178 0 -179 0 0 106 c0 96 2 105 18 100 80 -23
226 -15 339 19 52 16 52 16 72 78 10 35 22 88 26 120 l7 57 179 0 179 0 0 -99z
m-1318 -488 c38 -34 12 -93 -41 -93 -34 0 -53 21 -53 55 0 51 55 74 94 38z
m668 -250 c0 -148 3 -278 6 -291 4 -15 17 -25 35 -29 16 -3 29 -12 29 -19 0
-11 -25 -14 -120 -14 -105 0 -120 2 -120 17 0 15 -1 15 -18 0 -44 -40 -114
-29 -133 20 l-9 25 -34 -30 c-62 -54 -161 -50 -191 8 -19 37 -19 54 0 91 12
22 40 41 115 77 l100 47 0 37 c0 45 -30 81 -63 76 -12 -2 -34 -22 -50 -46 -23
-35 -34 -43 -55 -40 -58 7 -55 79 4 104 45 19 164 21 204 4 48 -20 60 -55 60
-173 0 -137 6 -167 34 -167 12 0 27 -5 34 -12 8 -8 18 -9 35 -1 19 9 25 22 31
59 8 60 8 299 -1 388 -6 64 -8 70 -35 80 -15 6 -28 16 -28 22 0 10 85 29 148
33 l22 1 0 -267z m500 215 c19 -6 45 -16 57 -24 19 -12 22 -11 27 11 4 17 13
25 28 25 19 0 20 -4 14 -52 -3 -29 -6 -72 -6 -95 0 -35 -4 -43 -18 -43 -11 0
-22 12 -30 33 -27 75 -111 121 -195 106 -52 -8 -87 -37 -117 -95 -22 -42 -25
-61 -25 -149 0 -84 4 -107 23 -147 13 -27 38 -56 56 -67 99 -61 237 -17 280
89 9 22 23 40 31 40 12 0 15 -18 15 -101 0 -90 -2 -100 -17 -97 -10 2 -19 13
-21 26 -4 26 -10 27 -37 8 -29 -20 -122 -46 -165 -46 -57 0 -148 28 -194 59
-124 86 -143 312 -36 434 80 91 203 122 330 85z m-2370 -8 c37 -19 40 -19 49
-3 15 28 22 11 28 -71 7 -93 -8 -101 -49 -27 -33 59 -81 86 -142 78 -44 -6
-86 -43 -86 -77 0 -33 43 -69 120 -100 153 -63 203 -111 203 -195 0 -83 -59
-144 -160 -165 -65 -14 -119 -7 -174 20 -47 24 -46 24 -52 0 -3 -11 -10 -20
-16 -20 -7 0 -11 27 -11 73 0 39 -3 83 -7 96 -5 19 -2 22 12 20 10 -2 22 -16
25 -30 26 -95 137 -146 234 -105 38 16 62 62 52 101 -5 21 -29 37 -131 85
-147 71 -175 101 -175 185 0 98 64 154 178 155 44 0 75 -6 102 -20z m2842
-178 c40 -23 48 -53 48 -182 0 -65 3 -125 6 -134 3 -9 17 -16 30 -16 26 0 32
-21 11 -39 -43 -35 -120 -17 -132 32 -6 23 -6 23 -40 -9 -43 -40 -98 -51 -148
-31 -41 18 -57 42 -57 88 0 45 48 87 149 128 l83 34 -5 46 c-5 46 -26 71 -59
71 -20 0 -31 -11 -59 -58 -17 -28 -24 -33 -52 -30 -29 3 -32 6 -35 40 -3 31 1
40 24 55 52 34 181 37 236 5z m833 14 c21 -9 37 -11 40 -5 15 24 25 4 25 -51
0 -70 -17 -80 -43 -25 -25 52 -99 64 -105 17 -5 -31 9 -45 89 -97 97 -63 125
-130 77 -190 -41 -52 -108 -67 -183 -40 -24 9 -41 11 -43 5 -2 -6 -10 -10 -18
-10 -11 0 -14 16 -14 70 0 54 3 70 14 70 8 0 19 -15 26 -34 6 -18 19 -41 30
-51 26 -23 89 -24 105 -1 21 27 4 57 -50 91 -26 17 -64 44 -84 62 -32 28 -36
37 -36 81 0 56 19 86 70 108 39 17 58 17 100 0z m404 3 c59 -12 106 -58 117
-114 12 -64 9 -65 -137 -65 l-132 0 6 -45 c17 -124 102 -166 205 -103 24 15
37 17 44 10 16 -16 -8 -41 -67 -68 -160 -75 -326 50 -294 221 18 99 87 158
201 174 4 1 30 -4 57 -10z m346 -3 c21 -9 37 -11 40 -5 15 24 25 4 25 -51 0
-70 -17 -80 -43 -25 -25 52 -99 64 -105 17 -5 -31 9 -45 89 -97 97 -63 125
-130 77 -190 -41 -52 -116 -68 -186 -40 -24 10 -38 12 -40 5 -2 -5 -10 -10
-18 -10 -11 0 -14 16 -14 70 0 82 17 94 43 30 19 -48 70 -76 110 -61 52 20 38
69 -30 109 -25 15 -63 41 -82 59 -32 28 -36 37 -36 81 0 56 19 86 70 108 39
17 58 17 100 0z m-3915 -28 c74 -45 104 -100 97 -182 -7 -76 -43 -130 -112
-165 -103 -54 -225 -25 -290 67 -26 38 -30 52 -30 112 0 60 4 74 30 111 43 61
102 89 185 89 57 0 73 -5 120 -32z m448 18 c59 -31 80 -85 41 -109 -26 -16
-62 1 -91 43 -35 51 -74 55 -111 11 -55 -66 -41 -237 22 -271 33 -17 103 -12
140 11 22 13 37 17 44 10 32 -32 -59 -81 -152 -81 -125 0 -201 73 -201 195 0
91 40 158 115 191 40 18 159 18 193 0z m262 -162 l0 -176 30 -11 c17 -6 30
-17 30 -24 0 -10 -29 -13 -120 -13 -100 0 -120 3 -120 15 0 8 8 15 17 15 9 0
25 7 35 17 16 14 18 33 18 140 0 135 -8 163 -45 163 -15 0 -25 6 -25 14 0 14
77 32 148 35 l32 1 0 -176z m1901 44 c0 -149 11 -195 51 -217 33 -19 68 -5 95
36 15 22 18 48 18 143 l0 115 -33 14 c-52 23 -33 36 61 39 l87 3 0 -174 c0
-183 3 -197 47 -197 14 0 23 -6 23 -15 0 -8 -8 -15 -19 -15 -10 0 -46 -3 -80
-6 l-61 -7 0 32 0 31 -42 -27 c-33 -22 -53 -28 -99 -28 -112 0 -147 53 -157
237 -7 120 -8 122 -32 128 -14 3 -26 14 -28 23 -3 15 7 17 82 17 l86 0 1 -132z
m-2475 -419 c25 -28 22 -88 -6 -111 -69 -56 -157 35 -105 109 25 36 80 36 111
2z m1115 0 c12 -23 3 -25 -17 -4 -20 20 -58 19 -78 -1 -24 -24 -20 -80 6 -98
30 -21 44 -20 68 4 27 27 25 38 -7 43 -26 4 -26 4 5 6 31 1 32 0 31 -41 0 -24
-3 -38 -5 -32 -4 9 -13 9 -35 1 -60 -23 -115 40 -89 103 20 48 99 60 121 19z
m313 0 c28 -26 25 -87 -4 -111 -48 -39 -120 -7 -120 53 0 79 69 111 124 58z
m683 3 c7 -8 10 -18 7 -21 -3 -3 -10 2 -15 12 -13 22 -57 22 -81 0 -24 -21
-23 -68 2 -93 24 -24 53 -26 70 -5 7 8 17 15 23 15 5 0 2 -9 -8 -20 -22 -24
-62 -26 -93 -4 -28 20 -31 93 -4 116 35 31 75 31 99 0z m211 4 c7 -7 15 -29
19 -48 11 -74 -81 -119 -126 -62 -49 62 -4 143 69 128 14 -3 31 -11 38 -18z
m-2966 7 c-40 -4 -43 -6 -40 -31 2 -22 9 -28 38 -33 l35 -6 -37 -2 c-35 -1
-38 -3 -38 -30 0 -28 3 -30 43 -34 l42 -4 -47 -1 -48 -2 0 75 0 75 48 -2 47
-1 -43 -4z m163 -43 c14 -27 27 -50 30 -50 3 0 16 23 30 50 14 28 30 50 35 50
6 0 9 -32 8 -77 l-1 -78 -6 65 -6 65 -22 -40 c-41 -73 -39 -73 -70 -14 l-28
54 -6 -65 -6 -65 -1 78 c-1 45 2 77 8 77 5 0 21 -22 35 -50z m279 28 c16 -26
-4 -52 -45 -58 -30 -4 -35 -9 -40 -40 -4 -24 -7 -11 -8 43 l-1 78 41 -3 c27
-2 46 -9 53 -20z m317 -33 c7 -31 16 -58 19 -60 4 -3 15 22 24 55 9 33 21 60
26 60 5 0 17 -27 26 -60 9 -33 20 -58 24 -55 3 2 12 29 19 60 7 30 16 55 20
55 4 0 -1 -34 -12 -75 -11 -42 -25 -74 -31 -72 -6 2 -17 29 -25 60 -8 31 -18
57 -21 57 -4 0 -14 -27 -23 -60 -10 -33 -22 -60 -27 -60 -6 0 -10 3 -10 8 0 4
-9 37 -19 75 -11 37 -16 67 -11 67 5 0 14 -25 21 -55z m297 48 c-34 -4 -38 -7
-38 -34 0 -27 3 -29 38 -31 l37 -1 -37 -4 c-34 -4 -38 -7 -38 -33 0 -26 4 -29
38 -33 34 -3 33 -4 -10 -5 l-48 -2 0 75 0 75 48 -2 c43 -1 44 -2 10 -5z m200
-5 c16 -16 15 -38 -4 -59 -14 -16 -14 -20 1 -48 8 -17 12 -31 7 -31 -5 0 -16
16 -25 35 -9 19 -23 35 -32 35 -10 0 -15 -10 -15 -35 0 -19 -4 -35 -10 -35 -6
0 -10 32 -10 75 l0 75 38 0 c21 0 43 -5 50 -12z m99 -100 c-2 -24 -4 -7 -4 37
0 44 2 63 4 43 2 -21 2 -57 0 -80z m139 57 c21 -30 35 -58 32 -60 -3 -3 -19
16 -37 42 l-31 48 0 -62 c0 -35 -4 -63 -10 -63 -6 0 -10 32 -10 75 0 43 4 75
10 75 5 0 26 -25 46 -55z m64 -21 c0 -56 -3 -75 -12 -71 -7 2 -13 9 -12 15 1
7 2 39 3 72 2 88 21 74 21 -16z m630 17 c0 -69 16 -91 55 -73 21 10 24 19 28
74 l3 63 2 -67 c2 -57 -1 -69 -17 -78 -55 -29 -91 5 -91 87 0 29 5 53 10 53 6
0 10 -26 10 -59z m258 47 c16 -16 15 -38 -4 -59 -14 -16 -14 -20 1 -48 8 -17
12 -31 7 -31 -5 0 -16 16 -25 35 -9 19 -23 35 -32 35 -10 0 -15 -10 -15 -35 0
-19 -4 -35 -10 -35 -6 0 -10 32 -10 75 l0 75 38 0 c21 0 43 -5 50 -12z m662
-38 c13 -27 26 -50 30 -50 4 0 17 23 30 50 13 28 27 50 32 50 4 0 7 -35 6 -77
l-1 -78 -6 65 c-6 63 -6 64 -19 35 -7 -17 -21 -41 -29 -54 l-16 -25 -28 55
-28 54 -1 -62 c0 -35 -4 -63 -10 -63 -6 0 -10 32 -10 75 0 91 15 99 50 25z
m234 -3 l29 -52 25 53 c37 75 52 69 52 -23 0 -43 -4 -75 -10 -75 -6 0 -10 28
-10 63 l-1 62 -28 -54 -28 -55 -16 25 c-8 13 -22 37 -29 54 -13 29 -13 28 -19
-35 l-6 -65 -1 78 c-1 42 1 77 6 77 4 0 20 -24 36 -53z m201 -54 c3 -12 14
-25 26 -28 34 -11 49 12 49 76 0 33 4 59 10 59 6 0 10 -26 10 -57 0 -81 -35
-113 -91 -83 -16 9 -19 21 -17 78 1 49 2 55 5 22 2 -25 5 -55 8 -67z m231 50
l39 -58 6 60 6 60 1 -77 c1 -43 0 -78 -3 -78 -2 0 -24 28 -47 63 l-43 62 -6
-65 -6 -65 -1 78 c-1 42 2 77 7 77 4 0 26 -26 47 -57z m154 -18 c0 -43 -4 -75
-10 -75 -6 0 -10 32 -10 75 0 43 4 75 10 75 6 0 10 -32 10 -75z m158 68 c-27
-4 -28 -6 -30 -76 l-2 -72 -3 72 c-4 69 -5 72 -31 76 -15 2 0 4 33 4 33 0 48
-2 33 -4z m116 -30 l18 -38 19 38 c11 20 24 37 29 37 6 0 1 -19 -12 -42 -12
-24 -25 -59 -29 -78 -6 -32 -7 -32 -8 -7 0 15 -12 50 -26 77 -14 28 -22 50
-17 50 5 0 16 -17 26 -37z"/>
<path d="M1875 658 c-58 -29 -75 -47 -75 -79 0 -40 29 -54 74 -35 39 16 49 40
44 99 l-3 35 -40 -20z"/>
<path d="M3114 648 c-58 -41 -72 -70 -43 -99 42 -42 109 12 109 87 0 24 -4 44
-9 44 -5 0 -30 -15 -57 -32z"/>
<path d="M4377 819 c-15 -9 -47 -59 -47 -74 0 -3 34 -5 75 -5 73 0 75 1 75 25
0 50 -58 80 -103 54z"/>
<path d="M727 810 c-35 -28 -50 -79 -45 -161 4 -76 26 -117 72 -133 67 -24
126 48 126 154 -1 126 -79 198 -153 140z"/>
<path d="M934 305 c-39 -59 23 -129 80 -91 30 19 36 75 10 100 -25 25 -71 20
-90 -9z"/>
<path d="M2364 305 c-27 -41 2 -105 47 -105 28 0 59 36 59 68 0 59 -75 85
-106 37z"/>
<path d="M3262 318 c-7 -7 -12 -29 -12 -50 0 -29 6 -41 26 -55 24 -15 29 -15
53 -2 32 18 41 77 16 103 -19 19 -66 21 -83 4z"/>
<path d="M752 303 c2 -23 9 -29 34 -31 22 -2 33 2 38 14 9 24 -12 44 -46 44
-26 0 -29 -3 -26 -27z"/>
<path d="M1580 300 c0 -28 3 -31 28 -28 21 2 27 8 27 28 0 20 -6 26 -27 28
-25 3 -28 0 -28 -28z"/>
<path d="M2770 300 c0 -28 3 -31 28 -28 21 2 27 8 27 28 0 20 -6 26 -27 28
-25 3 -28 0 -28 -28z"/>
</g>
</svg>
